<svg viewBox="0 0 320 140" aria-hidden="true"><rect width="320" height="140" fill="#05080e"/><path d="M30 118 H296 M30 118 V18" stroke="#3a4760" stroke-width="1" fill="none"/><polyline points="30.0,68.0 32.2,67.9 34.4,67.9 36.6,67.8 38.9,67.7 41.1,67.7 43.3,67.6 45.5,67.5 47.7,67.4 50.0,67.3 52.2,67.3 54.4,67.2 56.6,67.1 58.8,67.0 61.0,66.9 63.2,66.8 65.5,66.7 67.7,66.6 69.9,66.5 72.1,66.4 74.3,66.3 76.5,66.2 78.8,66.1 81.0,66.0 83.2,65.8 85.4,65.7 87.6,65.6 89.8,65.5 92.1,65.3 94.3,65.2 96.5,65.1 98.7,64.9 100.9,64.8 103.2,64.6 105.4,64.5 107.6,64.3 109.8,64.2 112.0,64.0 114.2,63.8 116.5,63.7 118.7,63.5 120.9,63.3 123.1,63.1 125.3,62.9 127.5,62.7 129.8,62.6 132.0,62.3 134.2,62.1 136.4,61.9 138.6,61.7 140.8,61.5 143.1,61.2 145.3,61.0 147.5,60.8 149.7,60.5 151.9,60.3 154.1,60.0 156.3,59.7 158.6,59.5 160.8,59.2 163.0,58.9 165.2,58.6 167.4,58.3 169.7,58.0 171.9,57.6 174.1,57.3 176.3,57.0 178.5,56.6 180.7,56.3 182.9,55.9 185.2,55.5 187.4,55.2 189.6,54.8 191.8,54.4 194.0,54.0 196.2,53.5 198.5,53.1 200.7,52.7 202.9,52.2 205.1,51.7 207.3,51.3 209.6,50.8 211.8,50.3 214.0,49.8 216.2,49.2 218.4,48.7 220.6,48.1 222.8,47.6 225.1,47.0 227.3,46.4 229.5,45.8 231.7,45.1 233.9,44.5 236.2,43.8 238.4,43.1 240.6,42.5 242.8,41.7 245.0,41.0 247.2,40.3 249.4,39.5 251.7,38.7 253.9,37.9 256.1,37.1 258.3,36.2 260.5,35.3 262.8,34.5 265.0,33.5 267.2,32.6 269.4,31.6 271.6,30.7 273.8,29.6 276.1,28.6 278.3,27.5 280.5,26.4 282.7,25.3 284.9,24.2 287.1,23.0 289.4,21.8 291.6,20.6 293.8,19.3 296.0,18.0" fill="none" stroke="#f08a5d" stroke-width="1.8" opacity="1" stroke-linecap="round" stroke-linejoin="round"/><polyline points="30.0,68.0 32.2,69.6 34.4,71.2 36.6,72.8 38.9,74.2 41.1,75.7 43.3,77.1 45.5,78.4 47.7,79.7 50.0,81.0 52.2,82.2 54.4,83.3 56.6,84.5 58.8,85.6 61.0,86.6 63.2,87.7 65.5,88.7 67.7,89.6 69.9,90.6 72.1,91.5 74.3,92.3 76.5,93.2 78.8,94.0 81.0,94.8 83.2,95.5 85.4,96.3 87.6,97.0 89.8,97.7 92.1,98.3 94.3,99.0 96.5,99.6 98.7,100.2 100.9,100.8 103.2,101.4 105.4,101.9 107.6,102.4 109.8,102.9 112.0,103.4 114.2,103.9 116.5,104.4 118.7,104.8 120.9,105.3 123.1,105.7 125.3,106.1 127.5,106.5 129.8,106.8 132.0,107.2 134.2,107.6 136.4,107.9 138.6,108.2 140.8,108.6 143.1,108.9 145.3,109.2 147.5,109.5 149.7,109.7 151.9,110.0 154.1,110.3 156.3,110.5 158.6,110.8 160.8,111.0 163.0,111.2 165.2,111.5 167.4,111.7 169.7,111.9 171.9,112.1 174.1,112.3 176.3,112.5 178.5,112.6 180.7,112.8 182.9,113.0 185.2,113.2 187.4,113.3 189.6,113.5 191.8,113.6 194.0,113.8 196.2,113.9 198.5,114.0 200.7,114.2 202.9,114.3 205.1,114.4 207.3,114.5 209.6,114.6 211.8,114.7 214.0,114.9 216.2,115.0 218.4,115.1 220.6,115.2 222.8,115.2 225.1,115.3 227.3,115.4 229.5,115.5 231.7,115.6 233.9,115.7 236.2,115.7 238.4,115.8 240.6,115.9 242.8,116.0 245.0,116.0 247.2,116.1 249.4,116.2 251.7,116.2 253.9,116.3 256.1,116.3 258.3,116.4 260.5,116.4 262.8,116.5 265.0,116.5 267.2,116.6 269.4,116.6 271.6,116.7 273.8,116.7 276.1,116.8 278.3,116.8 280.5,116.8 282.7,116.9 284.9,116.9 287.1,117.0 289.4,117.0 291.6,117.0 293.8,117.1 296.0,117.1" fill="none" stroke="#3a4760" stroke-width="1.8" opacity="1" stroke-linecap="round" stroke-linejoin="round"/><polyline points="30.0,68.0 32.2,68.5 34.4,69.0 36.6,69.4 38.9,69.7 41.1,69.9 43.3,70.0 45.5,70.0 47.7,69.8 50.0,69.6 52.2,69.2 54.4,68.8 56.6,68.3 58.8,67.8 61.0,67.3 63.2,66.9 65.5,66.5 67.7,66.2 69.9,66.0 72.1,66.0 74.3,66.1 76.5,66.3 78.8,66.6 81.0,67.0 83.2,67.4 85.4,67.9 87.6,68.4 89.8,68.9 92.1,69.3 94.3,69.6 96.5,69.9 98.7,70.0 100.9,70.0 103.2,69.8 105.4,69.6 107.6,69.2 109.8,68.8 112.0,68.3 114.2,67.8 116.5,67.4 118.7,66.9 120.9,66.5 123.1,66.2 125.3,66.1 127.5,66.0 129.8,66.1 132.0,66.2 134.2,66.5 136.4,66.9 138.6,67.4 140.8,67.9 143.1,68.4 145.3,68.8 147.5,69.3 149.7,69.6 151.9,69.9 154.1,70.0 156.3,70.0 158.6,69.9 160.8,69.6 163.0,69.3 165.2,68.9 167.4,68.4 169.7,67.9 171.9,67.4 174.1,67.0 176.3,66.6 178.5,66.3 180.7,66.1 182.9,66.0 185.2,66.0 187.4,66.2 189.6,66.5 191.8,66.9 194.0,67.3 196.2,67.8 198.5,68.3 200.7,68.8 202.9,69.2 205.1,69.6 207.3,69.8 209.6,70.0 211.8,70.0 214.0,69.9 216.2,69.7 218.4,69.4 220.6,68.9 222.8,68.5 225.1,68.0 227.3,67.5 229.5,67.0 231.7,66.6 233.9,66.3 236.2,66.1 238.4,66.0 240.6,66.0 242.8,66.2 245.0,66.5 247.2,66.8 249.4,67.3 251.7,67.7 253.9,68.2 256.1,68.7 258.3,69.2 260.5,69.5 262.8,69.8 265.0,70.0 267.2,70.0 269.4,69.9 271.6,69.7 273.8,69.4 276.1,69.0 278.3,68.5 280.5,68.0 282.7,67.6 284.9,67.1 287.1,66.7 289.4,66.3 291.6,66.1 293.8,66.0 296.0,66.0" fill="none" stroke="#5cff8a" stroke-width="2.2" opacity="1" stroke-linecap="round" stroke-linejoin="round"/></svg>
