<svg xmlns="http://www.w3.org/2000/svg" viewBox="0 0 776 764" font-family="Inter, Helvetica, Arial, sans-serif">
<defs><marker id="a" viewBox="0 0 10 10" refX="9" refY="5" markerWidth="6" markerHeight="6" orient="auto-start-reverse"><path d="M0 0L10 5L0 10z" fill="#9ca3af"/></marker></defs>
<rect width="776" height="764" fill="white"/>
<rect x="64.0" y="236" width="300" height="296" rx="8" fill="#f3f4f6" stroke="#9ca3af" stroke-width="1.25"/>
<text x="76.0" y="256" font-size="12" font-weight="600" fill="#111827" text-anchor="start">Block, repeated N times</text>
<text x="214" y="36" font-size="15" font-weight="600" fill="#111827" text-anchor="middle">Language model (decoder)</text>
<rect x="64.0" y="56" width="300" height="44" rx="8" fill="white" stroke="#9ca3af" stroke-width="1.25"/>
<text x="214" y="76" font-size="13" font-weight="600" fill="#111827" text-anchor="middle">Next-token logits</text>
<text x="214" y="92" font-size="11" font-weight="400" fill="#6b7280" text-anchor="middle">(B, T, vocab)</text>
<line x1="214" y1="116" x2="214" y2="100" stroke="#9ca3af" stroke-width="1.25" marker-end="url(#a)"/>
<rect x="64.0" y="116" width="300" height="44" rx="8" fill="white" stroke="#9ca3af" stroke-width="1.25"/>
<text x="214" y="136" font-size="13" font-weight="600" fill="#111827" text-anchor="middle">Linear head</text>
<text x="214" y="152" font-size="11" font-weight="400" fill="#6b7280" text-anchor="middle">(B, T, d) to (B, T, vocab)</text>
<line x1="214" y1="176" x2="214" y2="160" stroke="#9ca3af" stroke-width="1.25" marker-end="url(#a)"/>
<rect x="64.0" y="176" width="300" height="44" rx="8" fill="white" stroke="#9ca3af" stroke-width="1.25"/>
<text x="214" y="196" font-size="13" font-weight="600" fill="#111827" text-anchor="middle">RMSNorm</text>
<text x="214" y="212" font-size="11" font-weight="400" fill="#6b7280" text-anchor="middle">(B, T, d)</text>
<line x1="214" y1="236" x2="214" y2="220" stroke="#9ca3af" stroke-width="1.25" marker-end="url(#a)"/>
<line x1="214" y1="292" x2="214" y2="282" stroke="#9ca3af" stroke-width="1.25" marker-end="url(#a)"/>
<rect x="104.0" y="292" width="220" height="44" rx="8" fill="white" stroke="#9ca3af" stroke-width="1.25"/>
<text x="214" y="312" font-size="13" font-weight="600" fill="#111827" text-anchor="middle">SwiGLU feed-forward</text>
<text x="214" y="328" font-size="11" font-weight="400" fill="#6b7280" text-anchor="middle">per token: (B, T, d) to (B, T, d)</text>
<line x1="214" y1="344" x2="214" y2="336" stroke="#9ca3af" stroke-width="1.25" marker-end="url(#a)"/>
<rect x="104.0" y="344" width="220" height="32" rx="8" fill="white" stroke="#9ca3af" stroke-width="1.25"/>
<text x="214" y="365" font-size="13" font-weight="600" fill="#111827" text-anchor="middle">RMSNorm</text>
<line x1="214" y1="394" x2="214" y2="376" stroke="#9ca3af" stroke-width="1.25" marker-end="url(#a)"/>
<line x1="214" y1="420" x2="214" y2="410" stroke="#9ca3af" stroke-width="1.25" marker-end="url(#a)"/>
<rect x="104.0" y="420" width="220" height="44" rx="8" fill="#eff6ff" stroke="#2563eb" stroke-width="1.75"/>
<text x="214" y="440" font-size="13" font-weight="600" fill="#111827" text-anchor="middle">Multi-head attention</text>
<text x="214" y="456" font-size="11" font-weight="400" fill="#6b7280" text-anchor="middle">causal mask; RoPE rotates q and k</text>
<line x1="214" y1="472" x2="214" y2="464" stroke="#9ca3af" stroke-width="1.25" marker-end="url(#a)"/>
<rect x="104.0" y="472" width="220" height="32" rx="8" fill="white" stroke="#9ca3af" stroke-width="1.25"/>
<text x="214" y="493" font-size="13" font-weight="600" fill="#111827" text-anchor="middle">RMSNorm</text>
<line x1="214" y1="532" x2="214" y2="504" stroke="#9ca3af" stroke-width="1.25"/>
<path d="M214 520 H84.0 V402 H206" fill="none" stroke="#2563eb" stroke-width="1.5" stroke-dasharray="4 3"/>
<path d="M214 388 H92.0 V274 H206" fill="none" stroke="#2563eb" stroke-width="1.5" stroke-dasharray="4 3"/>
<circle cx="214" cy="274" r="8" fill="white" stroke="#9ca3af"/>
<text x="214" y="278.5" font-size="13" font-weight="600" fill="#111827" text-anchor="middle">+</text>
<circle cx="214" cy="402" r="8" fill="white" stroke="#9ca3af"/>
<text x="214" y="406.5" font-size="13" font-weight="600" fill="#111827" text-anchor="middle">+</text>
<text x="58" y="384.0" font-size="11" font-weight="400" fill="#2563eb" text-anchor="end">residual</text>
<line x1="214" y1="548" x2="214" y2="532" stroke="#9ca3af" stroke-width="1.25" marker-end="url(#a)"/>
<rect x="64.0" y="548" width="300" height="44" rx="8" fill="white" stroke="#9ca3af" stroke-width="1.25"/>
<text x="214" y="568" font-size="13" font-weight="600" fill="#111827" text-anchor="middle">Position: RoPE</text>
<text x="214" y="584" font-size="11" font-weight="400" fill="#6b7280" text-anchor="middle">applied inside attention, nothing added here</text>
<line x1="214" y1="608" x2="214" y2="592" stroke="#9ca3af" stroke-width="1.25" marker-end="url(#a)"/>
<rect x="64.0" y="608" width="300" height="44" rx="8" fill="white" stroke="#9ca3af" stroke-width="1.25"/>
<text x="214" y="628" font-size="13" font-weight="600" fill="#111827" text-anchor="middle">Token embedding</text>
<text x="214" y="644" font-size="11" font-weight="400" fill="#6b7280" text-anchor="middle">lookup table: (B, T) to (B, T, d)</text>
<line x1="214" y1="668" x2="214" y2="652" stroke="#9ca3af" stroke-width="1.25" marker-end="url(#a)"/>
<rect x="64.0" y="668" width="300" height="44" rx="8" fill="white" stroke="#9ca3af" stroke-width="1.25"/>
<text x="214" y="688" font-size="13" font-weight="600" fill="#111827" text-anchor="middle">Token ids</text>
<text x="214" y="704" font-size="11" font-weight="400" fill="#6b7280" text-anchor="middle">(B, T)</text>
<rect x="412.0" y="236" width="300" height="296" rx="8" fill="#f3f4f6" stroke="#9ca3af" stroke-width="1.25"/>
<text x="424.0" y="256" font-size="12" font-weight="600" fill="#111827" text-anchor="start">Block, repeated N times</text>
<text x="562" y="36" font-size="15" font-weight="600" fill="#111827" text-anchor="middle">Vision Transformer (ViT)</text>
<rect x="412.0" y="56" width="300" height="44" rx="8" fill="white" stroke="#ea580c" stroke-width="1.25"/>
<text x="562" y="76" font-size="13" font-weight="600" fill="#111827" text-anchor="middle">Class logits</text>
<text x="562" y="92" font-size="11" font-weight="400" fill="#6b7280" text-anchor="middle">(B, classes)</text>
<line x1="562" y1="116" x2="562" y2="100" stroke="#9ca3af" stroke-width="1.25" marker-end="url(#a)"/>
<rect x="412.0" y="116" width="300" height="44" rx="8" fill="white" stroke="#ea580c" stroke-width="1.25"/>
<text x="562" y="136" font-size="13" font-weight="600" fill="#111827" text-anchor="middle">Mean-pool + linear head</text>
<text x="562" y="152" font-size="11" font-weight="400" fill="#6b7280" text-anchor="middle">(B, n, d) to (B, classes)</text>
<line x1="562" y1="176" x2="562" y2="160" stroke="#9ca3af" stroke-width="1.25" marker-end="url(#a)"/>
<rect x="412.0" y="176" width="300" height="44" rx="8" fill="white" stroke="#9ca3af" stroke-width="1.25"/>
<text x="562" y="196" font-size="13" font-weight="600" fill="#111827" text-anchor="middle">RMSNorm</text>
<text x="562" y="212" font-size="11" font-weight="400" fill="#6b7280" text-anchor="middle">(B, T, d)</text>
<line x1="562" y1="236" x2="562" y2="220" stroke="#9ca3af" stroke-width="1.25" marker-end="url(#a)"/>
<line x1="562" y1="292" x2="562" y2="282" stroke="#9ca3af" stroke-width="1.25" marker-end="url(#a)"/>
<rect x="452.0" y="292" width="220" height="44" rx="8" fill="white" stroke="#9ca3af" stroke-width="1.25"/>
<text x="562" y="312" font-size="13" font-weight="600" fill="#111827" text-anchor="middle">SwiGLU feed-forward</text>
<text x="562" y="328" font-size="11" font-weight="400" fill="#6b7280" text-anchor="middle">per token: (B, T, d) to (B, T, d)</text>
<line x1="562" y1="344" x2="562" y2="336" stroke="#9ca3af" stroke-width="1.25" marker-end="url(#a)"/>
<rect x="452.0" y="344" width="220" height="32" rx="8" fill="white" stroke="#9ca3af" stroke-width="1.25"/>
<text x="562" y="365" font-size="13" font-weight="600" fill="#111827" text-anchor="middle">RMSNorm</text>
<line x1="562" y1="394" x2="562" y2="376" stroke="#9ca3af" stroke-width="1.25" marker-end="url(#a)"/>
<line x1="562" y1="420" x2="562" y2="410" stroke="#9ca3af" stroke-width="1.25" marker-end="url(#a)"/>
<rect x="452.0" y="420" width="220" height="44" rx="8" fill="#eff6ff" stroke="#ea580c" stroke-width="1.75"/>
<text x="562" y="440" font-size="13" font-weight="600" fill="#111827" text-anchor="middle">Multi-head attention</text>
<text x="562" y="456" font-size="11" font-weight="400" fill="#6b7280" text-anchor="middle">no mask: every patch sees all</text>
<line x1="562" y1="472" x2="562" y2="464" stroke="#9ca3af" stroke-width="1.25" marker-end="url(#a)"/>
<rect x="452.0" y="472" width="220" height="32" rx="8" fill="white" stroke="#9ca3af" stroke-width="1.25"/>
<text x="562" y="493" font-size="13" font-weight="600" fill="#111827" text-anchor="middle">RMSNorm</text>
<line x1="562" y1="532" x2="562" y2="504" stroke="#9ca3af" stroke-width="1.25"/>
<path d="M562 520 H432.0 V402 H554" fill="none" stroke="#2563eb" stroke-width="1.5" stroke-dasharray="4 3"/>
<path d="M562 388 H440.0 V274 H554" fill="none" stroke="#2563eb" stroke-width="1.5" stroke-dasharray="4 3"/>
<circle cx="562" cy="274" r="8" fill="white" stroke="#9ca3af"/>
<text x="562" y="278.5" font-size="13" font-weight="600" fill="#111827" text-anchor="middle">+</text>
<circle cx="562" cy="402" r="8" fill="white" stroke="#9ca3af"/>
<text x="562" y="406.5" font-size="13" font-weight="600" fill="#111827" text-anchor="middle">+</text>
<text x="406" y="384.0" font-size="11" font-weight="400" fill="#2563eb" text-anchor="end">residual</text>
<line x1="562" y1="548" x2="562" y2="532" stroke="#9ca3af" stroke-width="1.25" marker-end="url(#a)"/>
<rect x="412.0" y="548" width="300" height="44" rx="8" fill="white" stroke="#ea580c" stroke-width="1.25"/>
<text x="562" y="568" font-size="13" font-weight="600" fill="#111827" text-anchor="middle">Position: learned vectors</text>
<text x="562" y="584" font-size="11" font-weight="400" fill="#6b7280" text-anchor="middle">added to each patch token</text>
<line x1="562" y1="608" x2="562" y2="592" stroke="#9ca3af" stroke-width="1.25" marker-end="url(#a)"/>
<rect x="412.0" y="608" width="300" height="44" rx="8" fill="white" stroke="#ea580c" stroke-width="1.25"/>
<text x="562" y="628" font-size="13" font-weight="600" fill="#111827" text-anchor="middle">Patch embedding</text>
<text x="562" y="644" font-size="11" font-weight="400" fill="#6b7280" text-anchor="middle">conv, stride p: (B, 3, H, W) to (B, n, d)</text>
<line x1="562" y1="668" x2="562" y2="652" stroke="#9ca3af" stroke-width="1.25" marker-end="url(#a)"/>
<rect x="412.0" y="668" width="300" height="44" rx="8" fill="white" stroke="#ea580c" stroke-width="1.25"/>
<text x="562" y="688" font-size="13" font-weight="600" fill="#111827" text-anchor="middle">Image</text>
<text x="562" y="704" font-size="11" font-weight="400" fill="#6b7280" text-anchor="middle">(B, 3, H, W)</text>
<text x="388" y="744" font-size="12" font-weight="400" fill="#6b7280" text-anchor="middle">Orange = differs from the language model. The block structure is identical; only the attention mask changes.</text>
</svg>